<?xml version="1.0" encoding="utf-8"?>
<!-- Generator: Adobe Illustrator 24.0.3, SVG Export Plug-In . SVG Version: 6.00 Build 0)  -->
<svg version="1.1" id="Laag_1" xmlns="http://www.w3.org/2000/svg" xmlns:xlink="http://www.w3.org/1999/xlink" x="0px" y="0px"
	 viewBox="0 0 2560 1577.8" style="enable-background:new 0 0 2560 1577.8;" xml:space="preserve">
<style type="text/css">
	.st0{fill:#6BC9D6;}
	.st1{fill:#C85BAB;}
	.st2{fill:#B8DBE3;}
</style>
<path class="st0" d="M2559.7,1406.1c-26.1,9.2-65.8,18.4-107.9,6.3c-55.2-15.8-61.1-52.8-100.7-56.8c-60.4-6.1-77.5,76.9-159.8,96
	c-43,10-82.4-5.6-159.5-37c-126.6-51.8-123.7-84.3-187.2-99.7c-88.6-21.5-117.7,36.1-316.9,94.9c-122.7,36.2-188.7,55.8-271.5,42.3
	c-145.8-23.6-144.6-117-268.7-140.7c-181.7-34.7-258.7,151.1-449.6,116.5c-115.5-20.9-106.5-92.5-243.5-117
	c-151.8-27.2-241.4,46.7-296.1-7.4c-40.3-39.8-43.2-130.6-2.1-175c68.6-74.2,212.9,31.9,468.7,55.2
	c266.5,24.3,279.6-75.3,623.1-79.7c260.8-3.3,255.3,54.1,506.5,40.8c222.9-11.8,283.7-59.9,503.1-73.2
	c196.2-11.8,356.9,14,458.5,36.4"/>
<path class="st1" d="M0,1010.8c26.2-8.9,66-17.6,108-5c55,16.5,60.5,53.5,100,58c60.3,6.8,78.4-75.9,161-94
	c43.1-9.5,82.3,6.6,159,39c126,53.3,122.7,85.8,186,102c88.3,22.6,118.1-34.6,318-91c123.1-34.7,189.4-53.4,272-39
	c145.5,25.4,143.2,118.8,267,144c181.3,37,260.6-147.9,451-111c115.3,22.3,105.4,93.8,242,120c151.4,29,241.9-43.7,296,11
	c39.8,40.3,41.6,131.1,0,175c-69.5,73.4-212.5-34.5-468-61c-266.2-27.6-280.5,71.8-624,72c-260.8,0.1-254.6-57.2-506-47
	c-223,9-284.4,56.4-504,67c-196.3,9.4-356.7-18.4-458-42"/>
<path class="st2" d="M0,1043.8c62.6,58.8,155.3,125.1,260,115c72.3-7,81-43.7,188-88c34.5-14.3,208.1-86.2,391-41
	c86,21.3,91.8,48.1,181,59c86.6,10.6,158.2-5.2,214-18c140.6-32.3,134.4-66.4,221-74c90.3-7.9,196.3,20.5,277,78
	c69,49.1,87,96.3,147,103c55.9,6.2,110-34.6,129-48c37.6-26.4,43.2-44,70-67c57.8-49.5,130.7-52.5,192-55c54.8-2.2,235.1-9.6,290,92
	c21.3,39.5,24.2,96.3,0,114c-28,20.5-75.6-23.4-141-42c-85.7-24.4-141.9,11.7-295,67c-238.7,86.2-358,129.3-468,91
	c-79.8-27.8-84.2-68.6-179-91c-91.1-21.5-133.4,5.2-243,17c-209.2,22.5-233.8-55.4-467-39c-61.9,4.4-43.8,8.7-236,36
	c-176.4,25.1-215.1,35.6-281,35c-57.9-0.5-144.3-7.7-250-42"/>
</svg>
